<svg width="1680" height="1639" viewBox="0 0 1680 1639" fill="none" xmlns="http://www.w3.org/2000/svg">
<g clip-path="url(#clip0_10_740)">
<path d="M1329.05 840.031L1182.86 772.058L950.657 856.861L882.683 1003.05L1104.91 1611.54L1876.66 1329.69L1654.42 721.197L1329.05 840.031Z" fill="black"/>
<path d="M1280.42 808.924L1134.23 740.95L896.023 827.949L825.366 979.91L1051.41 1598.82L1837.8 1311.62L1610.22 688.477L1280.42 808.924Z" fill="#D3CD00"/>
<path d="M1350.9 60.8999H671.5V353.4H1350.9V60.8999Z" fill="#0029FA"/>
<path d="M1358.6 361.2H663.7V53.1997H1358.6V361.2ZM679.2 345.7H1343V68.6997H679.2V345.7Z" fill="#27FFA2"/>
<path d="M1350.9 8H671.5V60.9H1350.9V8Z" fill="black"/>
<path d="M1358.6 68.6998H663.7V0.299805H1358.6V68.6998ZM679.2 53.1998H1343V15.7998H679.2V53.1998Z" fill="#27FFA2"/>
<path d="M1405.4 88.8999H726V141.8H1405.4V88.8999Z" fill="black"/>
<path d="M1413.1 149.5H718.2V81.1001H1413.1V149.5ZM733.8 134H1397.6V96.6001H733.8V134Z" fill="#27FFA2"/>
<path d="M1405.4 141.7H726V434.2H1405.4V141.7Z" fill="#0029FA"/>
<path d="M1413.1 442H718.2V134H1413.1V442ZM733.8 426.5H1397.6V149.5H733.8V426.5Z" fill="#27FFA2"/>
<path d="M1599.3 175.4H919.9V467.9H1599.3V175.4Z" fill="#0029FA"/>
<path d="M1607 475.7H912.1V167.7H1607V475.7ZM927.6 460.2H1591.5V183.2H927.6V460.2Z" fill="#27FFA2"/>
<path d="M1599.3 122.6H919.9V175.5H1599.3V122.6Z" fill="black"/>
<path d="M1607 183.2H912.1V114.8H1607V183.2ZM927.6 167.7H1591.5V130.3H927.6V167.7Z" fill="#27FFA2"/>
<path d="M1444.2 278.2H764.8V570.7H1444.2V278.2Z" fill="#0029FA"/>
<path d="M1451.9 578.5H757.1V270.5H1452V578.5H1451.9ZM772.6 563H1436.4V286H772.6V563Z" fill="#27FFA2"/>
<path d="M1444.2 225.3H764.8V278.2H1444.2V225.3Z" fill="black"/>
<path d="M1451.9 286H757.1V217.6H1452V286H1451.9ZM772.6 270.5H1436.4V233.1H772.6V270.5Z" fill="#27FFA2"/>
<path d="M1297.4 354.8H911.5V462.9H1297.4V354.8Z" fill="#FAFAFA"/>
<path d="M1297.5 354.8V462.8H911.5L923.8 452.3V365.3H1285.2L1297.5 354.8Z" fill="black"/>
<path d="M1285.2 365.3H923.8V452.3H1285.2V365.3Z" fill="#C0C0C0"/>
<path d="M1118.5 389.1H1110.7V428.5H1118.5V389.1Z" fill="black"/>
<path d="M1138.6 429.4L1109.6 407.7L1132.8 387.4L1137.9 393.3L1122 407.2L1143.3 423.2L1138.6 429.4Z" fill="black"/>
<path d="M1082.4 430.9C1072.4 430.9 1064.2 422.7 1064.2 412.7V403.5C1064.2 393.5 1072.4 385.3 1082.4 385.3C1092.4 385.3 1100.6 393.5 1100.6 403.5V412.7C1100.6 422.7 1092.4 430.9 1082.4 430.9ZM1082.4 393C1076.6 393 1072 397.7 1072 403.4V412.6C1072 418.4 1076.7 423 1082.4 423C1088.2 423 1092.8 418.3 1092.8 412.6V403.4C1092.8 397.7 1088.1 393 1082.4 393Z" fill="#0F0F0F"/>
<path d="M1186.9 406.7H507.5V699.2H1186.9V406.7Z" fill="#0029FA"/>
<path d="M1194.6 707H499.8V399H1194.7V707H1194.6ZM515.3 691.5H1179.1V414.5H515.3V691.5Z" fill="#27FFA2"/>
<path d="M1186.9 353.8H507.5V406.7H1186.9V353.8Z" fill="black"/>
<path d="M1194.6 414.5H499.8V346.1H1194.7V414.5H1194.6ZM515.3 399H1179.1V361.6H515.3V399Z" fill="#27FFA2"/>
<path d="M1040.1 483.3H654.2V591.4H1040.1V483.3Z" fill="#FAFAFA"/>
<path d="M1040.2 483.3V591.3H654.2L666.5 580.8V493.8H1027.9L1040.2 483.3Z" fill="black"/>
<path d="M1027.9 493.8H666.5V580.8H1027.9V493.8Z" fill="#C0C0C0"/>
<path d="M861.2 517.6H853.4V557H861.2V517.6Z" fill="black"/>
<path d="M881.3 557.9L852.4 536.2L875.5 515.9L880.6 521.8L864.7 535.7L886 551.7L881.3 557.9Z" fill="black"/>
<path d="M825.1 559.4C815.1 559.4 806.9 551.2 806.9 541.2V532C806.9 522 815.1 513.8 825.1 513.8C835.1 513.8 843.3 522 843.3 532V541.2C843.3 551.2 835.1 559.4 825.1 559.4ZM825.1 521.5C819.3 521.5 814.7 526.2 814.7 531.9V541.1C814.7 546.9 819.4 551.5 825.1 551.5C830.9 551.5 835.5 546.8 835.5 541.1V531.9C835.5 526.2 830.9 521.5 825.1 521.5Z" fill="#0F0F0F"/>
<path d="M1531.7 650H852.3V1126.7H1531.7V650Z" fill="#0029FA"/>
<path d="M1539.4 1134.5H844.5V642.2H1539.4V1134.5ZM860 1118.9H1523.8V657.7H860V1118.9Z" fill="#27FFA2"/>
<path d="M1531.7 597.1H852.3V650H1531.7V597.1Z" fill="black"/>
<path d="M1539.4 657.7H844.5V589.3H1539.4V657.7ZM860 642.2H1523.8V604.8H860V642.2Z" fill="#27FFA2"/>
<path d="M1493.5 554.3H814.1V846.8H1493.5V554.3Z" fill="#0029FA"/>
<path d="M1501.2 854.6H806.4V546.6H1501.3V854.6H1501.2ZM821.9 839.1H1485.8V562.1H821.9V839.1Z" fill="#27FFA2"/>
<path d="M1493.5 501.4H814.1V554.3H1493.5V501.4Z" fill="black"/>
<path d="M1501.2 562.1H806.4V493.7H1501.3V562.1H1501.2ZM821.9 546.6H1485.8V509.2H821.9V546.6Z" fill="#27FFA2"/>
<path d="M1346.7 630.9H960.8V739H1346.7V630.9Z" fill="#FAFAFA"/>
<path d="M1346.8 630.9V739H960.8L973.1 728.4V641.4H1334.5L1346.8 630.9Z" fill="black"/>
<path d="M1334.5 641.4H973.1V728.4H1334.5V641.4Z" fill="#C0C0C0"/>
<path d="M1167.8 665.2H1160V704.6H1167.8V665.2Z" fill="black"/>
<path d="M1187.9 705.5L1159 683.8L1182.1 663.5L1187.2 669.4L1171.3 683.3L1192.6 699.3L1187.9 705.5Z" fill="black"/>
<path d="M1131.7 707C1121.7 707 1113.5 698.8 1113.5 688.8V679.6C1113.5 669.6 1121.7 661.4 1131.7 661.4C1141.7 661.4 1149.9 669.6 1149.9 679.6V688.8C1149.9 698.8 1141.7 707 1131.7 707ZM1131.7 669.1C1125.9 669.1 1121.3 673.8 1121.3 679.5V688.7C1121.3 694.5 1126 699.1 1131.7 699.1C1137.4 699.1 1142.1 694.4 1142.1 688.7V679.5C1142.1 673.8 1137.5 669.1 1131.7 669.1Z" fill="#0F0F0F"/>
<path d="M1454.75 516.076L1441.38 529.44L1446.9 534.956L1460.26 521.592L1454.75 516.076Z" fill="#27FFA2"/>
<path d="M513.212 773.565L507.696 779.081L529.758 801.142L535.273 795.627L513.212 773.565Z" fill="#27FFA2"/>
<path d="M602.919 795.625L597.404 801.14L615.859 819.595L621.374 814.08L602.919 795.625Z" fill="#27FFA2"/>
<path d="M524.152 814.066L518.637 819.581L532.213 833.157L537.728 827.642L524.152 814.066Z" fill="#27FFA2"/>
<path d="M1696.34 472.756L1676.97 492.13L1682.48 497.646L1701.86 478.271L1696.34 472.756Z" fill="#27FFA2"/>
<path d="M598.088 -6.58178L592.573 -1.06641L608.977 15.3383L614.493 9.82294L598.088 -6.58178Z" fill="#27FFA2"/>
<path d="M755.565 1101.86L1056.06 1588.82L1819.34 1310.06L1527.4 819.968L755.565 1101.86Z" fill="url(#paint0_linear_10_740)"/>
<path d="M1830.76 1314.19L1052.72 1598.34L744 1097.88L1530.77 810.539L1830.76 1314.19ZM1059.3 1579.33L1807.84 1305.95L1523.97 829.524L767.258 1105.89L1059.3 1579.33Z" fill="#D3CD00"/>
<path d="M1386.12 1311.28L1362.94 1361.16L1376.99 1367.69L1400.18 1317.82L1386.12 1311.28Z" fill="#D3CD00"/>
<path d="M1509.12 1325.63L1482.81 1382.21L1496.86 1388.74L1523.17 1332.16L1509.12 1325.63Z" fill="#D3CD00"/>
<path d="M1410.5 1370.67L1394.35 1405.4L1408.4 1411.94L1424.55 1377.21L1410.5 1370.67Z" fill="#D3CD00"/>
<path d="M1572.69 1245.09L1551.66 1290.34L1565.71 1296.88L1586.75 1251.63L1572.69 1245.09Z" fill="#D3CD00"/>
<path d="M1589.63 1306.89L1575.25 1337.81L1589.31 1344.35L1603.68 1313.43L1589.63 1306.89Z" fill="#D3CD00"/>
<path d="M1470.05 1282.89L1449.44 1327.23L1463.49 1333.76L1484.11 1289.42L1470.05 1282.89Z" fill="#D3CD00"/>
<path d="M544.561 1129.26L541.335 1182.64L557.555 1209.04L567.407 1254.95L577.189 1300.74L587.093 1346.47L596.874 1392.26L741.087 1430.9L772.55 1396.16L809.301 1341.3L846.105 1203.95L830.862 1178.54L747.357 1111.54L720.361 1084.02L719.975 1003.16L678.44 992.031L607.635 1179.39L593.566 1153.46L544.561 1129.26Z" fill="white"/>
<path d="M562.006 1188.18L541.335 1182.64L535.796 1203.31L556.467 1208.85L562.006 1188.18Z" fill="#1B1B19"/>
<path d="M552.224 1142.39L531.553 1136.85L520.761 1177.13L541.431 1182.67L552.224 1142.39Z" fill="#1B1B19"/>
<path d="M578.226 1214.58L557.555 1209.04L546.762 1249.32L567.433 1254.86L578.226 1214.58Z" fill="#1B1B19"/>
<path d="M810.05 1172.75L789.379 1167.21L774.161 1224.01L794.832 1229.55L810.05 1172.75Z" fill="#1B1B19"/>
<path d="M761.758 1436.44L576.3 1386.74L570.761 1407.42L756.219 1457.11L761.758 1436.44Z" fill="#1B1B19"/>
<path d="M588.078 1260.49L567.407 1254.95L556.615 1295.23L577.286 1300.77L588.078 1260.49Z" fill="#1B1B19"/>
<path d="M597.86 1306.28L577.189 1300.74L566.396 1341.02L587.067 1346.56L597.86 1306.28Z" fill="#1B1B19"/>
<path d="M607.764 1352L587.093 1346.47L576.3 1386.74L596.971 1392.28L607.764 1352Z" fill="#1B1B19"/>
<path d="M772.551 1396.16L751.88 1390.62L741.087 1430.9L761.758 1436.44L772.551 1396.16Z" fill="#1B1B19"/>
<path d="M809.398 1341.33L788.727 1335.79L772.551 1396.16L793.221 1401.7L809.398 1341.33Z" fill="#1B1B19"/>
<path d="M866.776 1209.49L846.105 1203.95L809.301 1341.3L829.972 1346.84L866.776 1209.49Z" fill="#1B1B19"/>
<path d="M613.271 1158.74L592.6 1153.21L587.061 1173.88L607.732 1179.42L613.271 1158.74Z" fill="#1B1B19"/>
<path d="M851.715 1183.4L831.044 1177.86L825.505 1198.53L846.176 1204.07L851.715 1183.4Z" fill="#1B1B19"/>
<path d="M836.279 1157.94L794.841 1146.83L789.302 1167.5L830.74 1178.61L836.279 1157.94Z" fill="#1B1B19"/>
<path d="M725.417 982.463L683.979 971.36L678.44 992.031L719.878 1003.13L725.417 982.463Z" fill="#1B1B19"/>
<path d="M762.85 1137.95L742.179 1132.41L726.96 1189.21L747.631 1194.75L762.85 1137.95Z" fill="#1B1B19"/>
<path d="M800.379 1126.16L747.64 1112.03L742.101 1132.7L794.84 1146.83L800.379 1126.16Z" fill="#1B1B19"/>
<path d="M740.645 1008.7L719.975 1003.16L673.931 1175L694.602 1180.54L740.645 1008.7Z" fill="#1B1B19"/>
<path d="M678.537 992.057L657.866 986.518L590.521 1237.85L611.192 1243.39L678.537 992.057Z" fill="#1B1B19"/>
<path d="M752.992 1090.9L700.253 1076.76L694.714 1097.43L747.454 1111.57L752.992 1090.9Z" fill="#1B1B19"/>
<path d="M599.175 1132.92L537.066 1116.27L531.527 1136.95L593.636 1153.59L599.175 1132.92Z" fill="#1B1B19"/>
</g>
<defs>
<linearGradient id="paint0_linear_10_740" x1="614.647" y1="1063.92" x2="1758.62" y2="1301.32" gradientUnits="userSpaceOnUse">
<stop stop-color="white"/>
<stop offset="0.0968843" stop-color="#FEFFF6"/>
<stop offset="0.2581" stop-color="#FCFFDC"/>
<stop offset="0.4637" stop-color="#F9FFB3"/>
<stop offset="0.7058" stop-color="#F5FF79"/>
<stop offset="0.9758" stop-color="#EFFF30"/>
<stop offset="0.9944" stop-color="#EFFF2B"/>
</linearGradient>
<clipPath id="clip0_10_740">
<rect width="1680" height="1639" fill="white"/>
</clipPath>
</defs>
</svg>
